<svg xmlns="http://www.w3.org/2000/svg" viewBox="0 0 512 512" role="img" aria-label="ActionWall logo">
  <defs>
    <linearGradient id="bg" x1="0" y1="0" x2="1" y2="1">
      <stop offset="0" stop-color="#101b33"/>
      <stop offset="1" stop-color="#0a1120"/>
    </linearGradient>
    <linearGradient id="brick" x1="0" y1="0" x2="0" y2="1">
      <stop offset="0" stop-color="#334155"/>
      <stop offset="1" stop-color="#1e293b"/>
    </linearGradient>
    <linearGradient id="hot" x1="0" y1="0" x2="0" y2="1">
      <stop offset="0" stop-color="#f87171"/>
      <stop offset="1" stop-color="#dc2626"/>
    </linearGradient>
    <clipPath id="shield">
      <path d="M256 52 L432 124 V286 C432 386 356 452 256 484 C156 452 80 386 80 286 V124 Z"/>
    </clipPath>
  </defs>

  <rect width="512" height="512" rx="112" fill="url(#bg)"/>

  <!-- brick courses clipped to the shield -->
  <g clip-path="url(#shield)">
    <g fill="url(#brick)">
      <!-- generated courses: 44px rows, 64px bricks, alternate offset -->
      <rect x="40"  y="72" width="56" height="36" rx="7"/><rect x="104" y="72" width="56" height="36" rx="7"/><rect x="168" y="72" width="56" height="36" rx="7"/><rect x="232" y="72" width="56" height="36" rx="7"/><rect x="296" y="72" width="56" height="36" rx="7"/><rect x="360" y="72" width="56" height="36" rx="7"/><rect x="424" y="72" width="56" height="36" rx="7"/>
      <rect x="72"  y="116" width="56" height="36" rx="7"/><rect x="136" y="116" width="56" height="36" rx="7"/><rect x="200" y="116" width="56" height="36" rx="7"/><rect x="264" y="116" width="56" height="36" rx="7"/><rect x="328" y="116" width="56" height="36" rx="7"/><rect x="392" y="116" width="56" height="36" rx="7"/>
      <rect x="40"  y="160" width="56" height="36" rx="7"/><rect x="104" y="160" width="56" height="36" rx="7"/><rect x="168" y="160" width="56" height="36" rx="7"/><rect x="232" y="160" width="56" height="36" rx="7"/><rect x="296" y="160" width="56" height="36" rx="7"/><rect x="360" y="160" width="56" height="36" rx="7"/><rect x="424" y="160" width="56" height="36" rx="7"/>
      <rect x="72"  y="204" width="56" height="36" rx="7"/><rect x="136" y="204" width="56" height="36" rx="7"/><rect x="200" y="204" width="56" height="36" rx="7"/><rect x="264" y="204" width="56" height="36" rx="7"/><rect x="328" y="204" width="56" height="36" rx="7"/><rect x="392" y="204" width="56" height="36" rx="7"/>
      <rect x="40"  y="248" width="56" height="36" rx="7"/><rect x="104" y="248" width="56" height="36" rx="7"/><rect x="168" y="248" width="56" height="36" rx="7"/><rect x="232" y="248" width="56" height="36" rx="7"/><rect x="296" y="248" width="56" height="36" rx="7"/><rect x="360" y="248" width="56" height="36" rx="7"/><rect x="424" y="248" width="56" height="36" rx="7"/>
      <rect x="72"  y="292" width="56" height="36" rx="7"/><rect x="136" y="292" width="56" height="36" rx="7"/><rect x="200" y="292" width="56" height="36" rx="7"/><rect x="328" y="292" width="56" height="36" rx="7"/><rect x="392" y="292" width="56" height="36" rx="7"/>
      <rect x="40"  y="336" width="56" height="36" rx="7"/><rect x="104" y="336" width="56" height="36" rx="7"/><rect x="168" y="336" width="56" height="36" rx="7"/><rect x="232" y="336" width="56" height="36" rx="7"/><rect x="296" y="336" width="56" height="36" rx="7"/><rect x="360" y="336" width="56" height="36" rx="7"/><rect x="424" y="336" width="56" height="36" rx="7"/>
      <rect x="72"  y="380" width="56" height="36" rx="7"/><rect x="136" y="380" width="56" height="36" rx="7"/><rect x="200" y="380" width="56" height="36" rx="7"/><rect x="264" y="380" width="56" height="36" rx="7"/><rect x="328" y="380" width="56" height="36" rx="7"/><rect x="392" y="380" width="56" height="36" rx="7"/>
      <rect x="40"  y="424" width="56" height="36" rx="7"/><rect x="104" y="424" width="56" height="36" rx="7"/><rect x="168" y="424" width="56" height="36" rx="7"/><rect x="232" y="424" width="56" height="36" rx="7"/><rect x="296" y="424" width="56" height="36" rx="7"/><rect x="360" y="424" width="56" height="36" rx="7"/><rect x="424" y="424" width="56" height="36" rx="7"/>
    </g>
    <!-- the blocked action: one brick pulled from the wall -->
    <g>
      <rect x="262" y="290" width="64" height="40" rx="8" fill="url(#hot)" transform="rotate(-6 294 310)"/>
    </g>
  </g>

  <!-- shield outline -->
  <path d="M256 52 L432 124 V286 C432 386 356 452 256 484 C156 452 80 386 80 286 V124 Z"
        fill="none" stroke="#475569" stroke-width="14" stroke-linejoin="round"/>
</svg>
